<svg class="icon" viewBox="0 0 1024 1024" xmlns="http://www.w3.org/2000/svg" width="200" height="200">
  <path d="M170.7 149.3h682.6c58.9 0 106.7 47.8 106.7 106.7v512c0 58.9-47.8 106.7-106.7 106.7H170.7C111.8 874.7 64 826.9 64 768V256c0-58.9 47.8-106.7 106.7-106.7zm0 64c-23.6 0-42.7 19.1-42.7 42.7v512c0 23.6 19.1 42.7 42.7 42.7h682.6c23.6 0 42.7-19.1 42.7-42.7V256c0-23.6-19.1-42.7-42.7-42.7H170.7z"/>
  <path d="M288 448a96 96 0 1 1 0-192 96 96 0 0 1 0 192zm0-64a32 32 0 1 0 0-64 32 32 0 0 0 0 64z"/>
  <path d="M121.6 738.1 320 539.7c25-25 65.5-25 90.5 0l58.2 58.2 144.9-176.1c25.7-31.3 73.5-31.8 99.9-1.1l188.3 219.7-48.6 41.7L665 462.5 517.5 641.9c-23.8 29-67 31.1-93.6 4.5l-58.6-58.6L166.9 786.1l-45.3-48z"/>
</svg>
